<svg xmlns="http://www.w3.org/2000/svg" width="180" height="360" viewBox="0 0 180 360">
  <defs>
    <linearGradient id="pole" x1="0" x2="0" y1="0" y2="1">
      <stop offset="0%" stop-color="#8b5a2b"/>
      <stop offset="100%" stop-color="#5a3a18"/>
    </linearGradient>
  </defs>
  <!-- pole -->
  <rect x="30" y="20" width="18" height="320" rx="9" fill="url(#pole)" stroke="#3a240f" stroke-width="3"/>
  <circle cx="39" cy="20" r="14" fill="#f2c343" stroke="#b38315" stroke-width="3"/>
  <!-- topper math "d/dt" -->
  <circle cx="39" cy="20" r="12" fill="#fff" stroke="#111" stroke-width="2"/>
  <text x="39" y="25" font-size="14" text-anchor="middle" font-family="Arial, Helvetica, sans-serif" fill="#111">d/t</text>
  <!-- flag -->
  <path d="M48,40 C110,30 140,50 160,44 L160,160 C132,168 112,150 80,160 C62,166 52,162 48,160 Z" fill="#fff" stroke="#111" stroke-width="4"/>
  <!-- checker pattern -->
  <path d="M48,80 C90,70 120,84 160,76 L160,120 C132,128 112,110 80,120 C62,126 52,122 48,120 Z" fill="#e33" opacity="0.95"/>
  <path d="M48,160 L48,120 C52,122 62,126 80,120 C112,110 132,128 160,120 L160,160 Z" fill="#e33" opacity="0.95"/>
</svg>

